<?xml version="1.0" encoding="UTF-8" standalone="no"?>
<svg id="Ace" version="1.1" xml:space="preserve" width="78" height="103" xmlns="http://www.w3.org/2000/svg" xmlns:svg="http://www.w3.org/2000/svg" xmlns:rdf="http://www.w3.org/1999/02/22-rdf-syntax-ns#" xmlns:cc="http://creativecommons.org/ns#" xmlns:dc="http://purl.org/dc/elements/1.1/"><title id="title469">Playing Card</title><defs id="defs4" /><metadata id="metadata465"><rdf:RDF><cc:Work rdf:about=""><dc:date>11/20/2023</dc:date><dc:creator><cc:Agent><dc:title>Caleb Hess</dc:title></cc:Agent></dc:creator><dc:title>Playing Card</dc:title><cc:license rdf:resource="http://creativecommons.org/publicdomain/zero/1.0/" /></cc:Work><cc:License rdf:about="http://creativecommons.org/publicdomain/zero/1.0/"><cc:permits rdf:resource="http://creativecommons.org/ns#Reproduction" /><cc:permits rdf:resource="http://creativecommons.org/ns#Distribution" /><cc:permits rdf:resource="http://creativecommons.org/ns#DerivativeWorks" /></cc:License></rdf:RDF></metadata><g id="layer11" transform="translate(-264,-0.72289801)"><g id="g9826"><rect id="background-5-6" x="265.5" y="2.222898" width="75" height="100" fill="#0000ff" stroke="#000000" stroke-width="3" /><rect id="rect7-1-56" x="268" y="4.722898" width="70" height="95" fill="#ffffff" /><text fill="#000000" color="#000000" stroke="#000000" x="324.33121" y="66.470001" font-size="49.6416px" id="text11-6-2-1" transform="scale(0.85719455,1.1665963)" style="stroke-width:0.827363">10</text></g><path id="path7337-2-6-99" style="fill:#000000;stroke:#008484;stroke-width:0.0301422;stroke-linecap:round;stroke-linejoin:round" d="m 278.52394,5.7983271 c -2.44681,0 -4.43094,1.87429 -4.43094,4.185711 0,1.7180409 1.09662,3.1941319 2.66418,3.8387219 0.65467,0.61461 1.23079,1.48257 1.55742,2.70807 -0.67903,-1.48814 -2.24594,-2.52957 -4.07041,-2.52957 -2.44681,0 -4.43094,1.87429 -4.43094,4.185701 0,2.311421 1.98413,4.184791 4.43094,4.184791 1.82969,0 3.40038,-1.04743 4.07627,-2.542381 -1.12246,4.263422 -5.25959,4.220522 -5.25959,4.220522 h 11.07532 c 0,0 -4.0141,-0.0234 -5.20724,-4.060312 0.71304,1.408881 2.2353,2.382171 3.99869,2.382171 2.44688,0 4.43002,-1.87337 4.43002,-4.184791 0,-2.311411 -1.98314,-4.185701 -4.43002,-4.185701 -1.75617,0 -3.27322,0.96522 -3.98995,2.36476 0.38152,-1.27274 1.04352,-2.14472 1.77061,-2.74105 3.8e-4,-3e-4 0,-4.9e-4 0,-9.4e-4 1.3402,-0.719501 2.24458,-2.079581 2.24458,-3.6400619 0,-2.311421 -1.98316,-4.185711 -4.43002,-4.185711 z" /></g></svg>
