<?xml version="1.0" encoding="UTF-8" standalone="no"?>
<svg id="Ace" version="1.1" xml:space="preserve" width="78" height="103" xmlns="http://www.w3.org/2000/svg" xmlns:svg="http://www.w3.org/2000/svg" xmlns:rdf="http://www.w3.org/1999/02/22-rdf-syntax-ns#" xmlns:cc="http://creativecommons.org/ns#" xmlns:dc="http://purl.org/dc/elements/1.1/"><title id="title469">Playing Card</title><defs id="defs4" /><metadata id="metadata465"><rdf:RDF><cc:Work rdf:about=""><dc:date>11/20/2023</dc:date><dc:creator><cc:Agent><dc:title>Caleb Hess</dc:title></cc:Agent></dc:creator><dc:title>Playing Card</dc:title><cc:license rdf:resource="http://creativecommons.org/publicdomain/zero/1.0/" /></cc:Work><cc:License rdf:about="http://creativecommons.org/publicdomain/zero/1.0/"><cc:permits rdf:resource="http://creativecommons.org/ns#Reproduction" /><cc:permits rdf:resource="http://creativecommons.org/ns#Distribution" /><cc:permits rdf:resource="http://creativecommons.org/ns#DerivativeWorks" /></cc:License></rdf:RDF></metadata><g id="layer14" transform="translate(-0.361449)"><g id="g9813"><rect id="background-5" x="1.861449" y="1.5" width="75" height="100" fill="#0000ff" stroke="#000000" stroke-width="3" /><rect id="rect7-1" x="4.3614488" y="4" width="70" height="95" fill="#ffffff" /><text fill="#000000" color="#000000" stroke="#000000" x="11.814016" y="88.954262" font-size="79.6876px" id="text11-6" transform="scale(0.97568972,1.024916)" style="stroke-width:1.32813">K</text><path id="path7337-2-6" style="fill:#000000;stroke:#008484;stroke-width:0.0301422;stroke-linecap:round;stroke-linejoin:round" d="m 15.477858,4.71398 c -2.446812,0 -4.430938,1.874291 -4.430938,4.185712 0,1.71804 1.096623,3.194131 2.664179,3.838721 0.654671,0.61461 1.230788,1.48257 1.557419,2.70807 -0.679023,-1.48814 -2.245939,-2.52957 -4.070409,-2.52957 -2.446812,0 -4.430938,1.87429 -4.430938,4.185701 0,2.311421 1.984126,4.184791 4.430938,4.184791 1.829688,0 3.400383,-1.04743 4.076267,-2.542381 -1.122455,4.263422 -5.259581,4.220522 -5.259581,4.220522 h 11.075316 c 0,0 -4.014097,-0.0234 -5.207239,-4.060312 0.713042,1.408881 2.235303,2.382171 3.998693,2.382171 2.446872,0 4.430019,-1.87337 4.430019,-4.184791 0,-2.311411 -1.983147,-4.185701 -4.430019,-4.185701 -1.756172,0 -3.273225,0.96522 -3.989955,2.36476 0.381522,-1.27274 1.043521,-2.14472 1.770608,-2.74105 3.79e-4,-3e-4 0,-4.9e-4 0,-9.4e-4 1.340201,-0.719501 2.244579,-2.079581 2.244579,-3.640061 0,-2.311421 -1.983157,-4.185712 -4.430019,-4.185712 z" /></g></g></svg>
