<?xml version="1.0" encoding="UTF-8" standalone="no"?>
<svg id="Ace" version="1.1" xml:space="preserve" width="78" height="103" xmlns="http://www.w3.org/2000/svg" xmlns:svg="http://www.w3.org/2000/svg" xmlns:rdf="http://www.w3.org/1999/02/22-rdf-syntax-ns#" xmlns:cc="http://creativecommons.org/ns#" xmlns:dc="http://purl.org/dc/elements/1.1/"><title id="title469">Playing Card</title><defs id="defs4" /><metadata id="metadata465"><rdf:RDF><cc:Work rdf:about=""><dc:date>11/20/2023</dc:date><dc:creator><cc:Agent><dc:title>Caleb Hess</dc:title></cc:Agent></dc:creator><dc:title>Playing Card</dc:title><cc:license rdf:resource="http://creativecommons.org/publicdomain/zero/1.0/" /></cc:Work><cc:License rdf:about="http://creativecommons.org/publicdomain/zero/1.0/"><cc:permits rdf:resource="http://creativecommons.org/ns#Reproduction" /><cc:permits rdf:resource="http://creativecommons.org/ns#Distribution" /><cc:permits rdf:resource="http://creativecommons.org/ns#DerivativeWorks" /></cc:License></rdf:RDF></metadata><g id="layer10" transform="translate(-352)"><g id="g8974" transform="translate(-28.744568,-74.656495)"><rect id="background-5-6-3" x="382.24457" y="76.156494" width="75" height="100" fill="#0000ff" stroke="#000000" stroke-width="3" /><rect id="rect7-1-56-4" x="384.74457" y="78.656494" width="70" height="95" fill="#ffffff" /><text fill="#000000" color="#000000" stroke="#000000" x="475.5246" y="129.84547" font-size="49.6416px" id="text11-6-2-1-8" transform="scale(0.85719455,1.1665963)" style="stroke-width:0.827363">9</text></g><path id="path7337-2-6-6" style="fill:#000000;stroke:#008484;stroke-width:0.0301422;stroke-linecap:round;stroke-linejoin:round" d="m 366.56741,5.7983271 c -2.44681,0 -4.43094,1.87429 -4.43094,4.185711 0,1.7180409 1.09662,3.1941319 2.66418,3.8387219 0.65467,0.61461 1.23079,1.48258 1.55742,2.70807 -0.67902,-1.48814 -2.24594,-2.52957 -4.07041,-2.52957 -2.44681,0 -4.43094,1.87429 -4.43094,4.185711 0,2.311411 1.98413,4.184781 4.43094,4.184781 1.82969,0 3.40038,-1.04743 4.07627,-2.542381 -1.12246,4.263422 -5.25959,4.220522 -5.25959,4.220522 h 11.07532 c 0,0 -4.0141,-0.0234 -5.20724,-4.060302 0.71304,1.408871 2.23531,2.382161 3.9987,2.382161 2.44687,0 4.43001,-1.87337 4.43001,-4.184781 0,-2.311421 -1.98314,-4.185711 -4.43001,-4.185711 -1.75618,0 -3.27323,0.96522 -3.98996,2.36476 0.38152,-1.27274 1.04352,-2.14472 1.77061,-2.74105 3.8e-4,-3e-4 0,-4.8e-4 0,-9.4e-4 1.3402,-0.719501 2.24458,-2.079581 2.24458,-3.6400619 0,-2.311421 -1.98316,-4.185711 -4.43002,-4.185711 z" /></g></svg>
