<?xml version="1.0" encoding="UTF-8" standalone="no"?>
<svg id="Ace" version="1.1" xml:space="preserve" width="78" height="103" xmlns="http://www.w3.org/2000/svg" xmlns:svg="http://www.w3.org/2000/svg" xmlns:rdf="http://www.w3.org/1999/02/22-rdf-syntax-ns#" xmlns:cc="http://creativecommons.org/ns#" xmlns:dc="http://purl.org/dc/elements/1.1/"><title id="title469">Playing Card</title><defs id="defs4" /><metadata id="metadata465"><rdf:RDF><cc:Work rdf:about=""><dc:date>11/20/2023</dc:date><dc:creator><cc:Agent><dc:title>Caleb Hess</dc:title></cc:Agent></dc:creator><dc:title>Playing Card</dc:title><cc:license rdf:resource="http://creativecommons.org/publicdomain/zero/1.0/" /></cc:Work><cc:License rdf:about="http://creativecommons.org/publicdomain/zero/1.0/"><cc:permits rdf:resource="http://creativecommons.org/ns#Reproduction" /><cc:permits rdf:resource="http://creativecommons.org/ns#Distribution" /><cc:permits rdf:resource="http://creativecommons.org/ns#DerivativeWorks" /></cc:License></rdf:RDF></metadata><g id="layer2" transform="translate(-1056,-0.36144912)"><g id="g8813"><rect id="background" x="1057.5" y="1.5" width="75" height="100" fill="#0000ff" stroke="#000000" stroke-width="3" transform="translate(0,0.36144912)" /><rect id="rect7" x="1060" y="4" width="70" height="95" fill="#ffffff" transform="translate(0,0.36144912)" /><text fill="#000000" color="#000000" stroke="#000000" x="1096.8628" y="88.954262" font-size="79.6876px" id="text11" transform="matrix(0.97568972,0,0,1.024916,0,0.36144912)" style="stroke-width:1.32813">A</text></g><path id="path7337-2-6-36" style="fill:#000000;stroke:#008484;stroke-width:0.0301422;stroke-linecap:round;stroke-linejoin:round" d="m 1070.9152,5.7983271 c -2.4469,0 -4.431,1.87429 -4.431,4.185711 0,1.7180409 1.0966,3.1941319 2.6641,3.8387219 0.6547,0.61461 1.2308,1.48257 1.5575,2.70807 -0.679,-1.48814 -2.2459,-2.52957 -4.0704,-2.52957 -2.4468,0 -4.4309,1.87429 -4.4309,4.185711 0,2.311411 1.9841,4.184781 4.4309,4.184781 1.8297,0 3.4004,-1.04743 4.0762,-2.542381 -1.1224,4.263422 -5.2595,4.220522 -5.2595,4.220522 h 11.0753 c 0,0 -4.0141,-0.0234 -5.2073,-4.060302 0.7131,1.408871 2.2354,2.382161 3.9988,2.382161 2.4468,0 4.43,-1.87337 4.43,-4.184781 0,-2.311421 -1.9832,-4.185711 -4.43,-4.185711 -1.7562,0 -3.2733,0.96522 -3.99,2.36476 0.3815,-1.27274 1.0435,-2.14472 1.7706,-2.74105 3e-4,-3e-4 0,-4.9e-4 0,-9.4e-4 1.3402,-0.719501 2.2446,-2.079581 2.2446,-3.6400619 0,-2.311421 -1.9832,-4.185711 -4.43,-4.185711 z" /></g></svg>
