<?xml version="1.0" encoding="UTF-8" standalone="no"?>
<svg id="Ace" version="1.1" xml:space="preserve" width="78" height="103" xmlns="http://www.w3.org/2000/svg" xmlns:svg="http://www.w3.org/2000/svg" xmlns:rdf="http://www.w3.org/1999/02/22-rdf-syntax-ns#" xmlns:cc="http://creativecommons.org/ns#" xmlns:dc="http://purl.org/dc/elements/1.1/"><title id="title469">Playing Card</title><defs id="defs4" /><metadata id="metadata465"><rdf:RDF><cc:Work rdf:about=""><dc:date>11/20/2023</dc:date><dc:creator><cc:Agent><dc:title>Caleb Hess</dc:title></cc:Agent></dc:creator><dc:title>Playing Card</dc:title><cc:license rdf:resource="http://creativecommons.org/publicdomain/zero/1.0/" /></cc:Work><cc:License rdf:about="http://creativecommons.org/publicdomain/zero/1.0/"><cc:permits rdf:resource="http://creativecommons.org/ns#Reproduction" /><cc:permits rdf:resource="http://creativecommons.org/ns#Distribution" /><cc:permits rdf:resource="http://creativecommons.org/ns#DerivativeWorks" /></cc:License></rdf:RDF></metadata><g id="layer13" transform="translate(-88)"><g id="g9009"><rect id="background-5-5" x="177.56223" y="0.96432585" width="75" height="100" fill="#0000ff" stroke="#000000" stroke-width="3" transform="translate(-88.062225,0.53567415)" /><rect id="rect7-1-8" x="180.06223" y="3.8257751" width="70" height="95" fill="#ffffff" transform="translate(-88.062225,0.53567415)" /><text fill="#000000" color="#000000" stroke="#000000" x="198.36684" y="88.43161" font-size="79.6876px" id="text11-6-4" transform="matrix(0.90260095,0,0,0.8900124,-80.133555,3.3293472)" style="white-space:pre;inline-size:67.3323;stroke-width:1.32813" xml:space="preserve"><tspan x="198.36684" y="88.43161" id="tspan10776">Q</tspan></text></g><path id="path7337-2-6-5" style="fill:#000000;stroke:#008484;stroke-width:0.0301422;stroke-linecap:round;stroke-linejoin:round" d="m 102.43697,5.7983271 c -2.446798,0 -4.430923,1.87429 -4.430923,4.185711 0,1.7180409 1.096618,3.1941319 2.664163,3.8387219 0.65467,0.61461 1.23079,1.48257 1.55742,2.70807 -0.67902,-1.48814 -2.245928,-2.52957 -4.070393,-2.52957 -2.446812,0 -4.430939,1.87429 -4.430939,4.185711 0,2.311411 1.984127,4.184781 4.430939,4.184781 1.829685,0 3.400373,-1.04743 4.076253,-2.542381 -1.12245,4.263422 -5.259568,4.220522 -5.259568,4.220522 h 11.075308 c 0,0 -4.0141,-0.0234 -5.20724,-4.060302 0.71304,1.408871 2.2353,2.382161 3.99869,2.382161 2.44688,0 4.43003,-1.87337 4.43003,-4.184781 0,-2.311421 -1.98315,-4.185711 -4.43003,-4.185711 -1.75617,0 -3.27323,0.96522 -3.98996,2.36476 0.38153,-1.27274 1.04353,-2.14472 1.77061,-2.74105 3.8e-4,-3e-4 0,-4.9e-4 0,-9.4e-4 1.3402,-0.719501 2.24458,-2.079581 2.24458,-3.6400619 0,-2.311421 -1.98316,-4.185711 -4.43002,-4.185711 z" /></g></svg>
