<?xml version="1.0" encoding="UTF-8" standalone="no"?>
<svg id="Ace" version="1.1" xml:space="preserve" width="78" height="103" xmlns="http://www.w3.org/2000/svg" xmlns:svg="http://www.w3.org/2000/svg" xmlns:rdf="http://www.w3.org/1999/02/22-rdf-syntax-ns#" xmlns:cc="http://creativecommons.org/ns#" xmlns:dc="http://purl.org/dc/elements/1.1/"><title id="title469">Playing Card</title><defs id="defs4" /><metadata id="metadata465"><rdf:RDF><cc:Work rdf:about=""><dc:date>11/20/2023</dc:date><dc:creator><cc:Agent><dc:title>Caleb Hess</dc:title></cc:Agent></dc:creator><dc:title>Playing Card</dc:title><cc:license rdf:resource="http://creativecommons.org/publicdomain/zero/1.0/" /></cc:Work><cc:License rdf:about="http://creativecommons.org/publicdomain/zero/1.0/"><cc:permits rdf:resource="http://creativecommons.org/ns#Reproduction" /><cc:permits rdf:resource="http://creativecommons.org/ns#Distribution" /><cc:permits rdf:resource="http://creativecommons.org/ns#DerivativeWorks" /></cc:License></rdf:RDF></metadata><g id="layer13" transform="translate(-88)"><g id="g9009"><rect id="background-5-5" x="177.56223" y="0.96432585" width="75" height="100" fill="#0000ff" stroke="#000000" stroke-width="3" transform="translate(-88.062225,0.53567415)" /><rect id="rect7-1-8" x="180.06223" y="3.8257751" width="70" height="95" fill="#ffffff" transform="translate(-88.062225,0.53567415)" /><text fill="#000000" color="#000000" stroke="#000000" x="198.36684" y="88.43161" font-size="79.6876px" id="text11-6-4" transform="matrix(0.90260095,0,0,0.8900124,-80.133555,3.3293472)" style="white-space:pre;inline-size:67.3323;display:inline;fill:#cc0000;stroke:#404040;stroke-width:1.32813" xml:space="preserve"><tspan x="198.36684" y="88.43161" id="tspan17630">Q</tspan></text></g><path id="path7339-0-2" style="fill:#a31919;stroke:#008484;stroke-width:0.0391879;stroke-linecap:round;stroke-linejoin:round" d="m 102.25176,29.403191 c 0,0 -2.854062,-4.649447 -4.529977,-6.697736 -1.675815,-2.048223 -5.479875,-5.53662 -5.479875,-5.53662 0,0 3.80406,-3.488398 5.479875,-5.536622 1.675915,-2.0482238 4.529977,-6.697739 4.529977,-6.697739 0,0 2.85407,4.6494502 4.52999,6.697739 1.67571,2.048224 5.47987,5.536622 5.47987,5.536622 0,0 -3.80416,3.488397 -5.47987,5.53662 -1.67592,2.048224 -4.52999,6.697736 -4.52999,6.697736 z" /></g></svg>
