<?xml version="1.0" encoding="UTF-8" standalone="no"?>
<svg id="Ace" version="1.1" xml:space="preserve" width="78" height="103" xmlns="http://www.w3.org/2000/svg" xmlns:svg="http://www.w3.org/2000/svg" xmlns:rdf="http://www.w3.org/1999/02/22-rdf-syntax-ns#" xmlns:cc="http://creativecommons.org/ns#" xmlns:dc="http://purl.org/dc/elements/1.1/"><title id="title469">Playing Card</title><defs id="defs4" /><metadata id="metadata465"><rdf:RDF><cc:Work rdf:about=""><dc:date>11/20/2023</dc:date><dc:creator><cc:Agent><dc:title>Caleb Hess</dc:title></cc:Agent></dc:creator><dc:title>Playing Card</dc:title><cc:license rdf:resource="http://creativecommons.org/publicdomain/zero/1.0/" /></cc:Work><cc:License rdf:about="http://creativecommons.org/publicdomain/zero/1.0/"><cc:permits rdf:resource="http://creativecommons.org/ns#Reproduction" /><cc:permits rdf:resource="http://creativecommons.org/ns#Distribution" /><cc:permits rdf:resource="http://creativecommons.org/ns#DerivativeWorks" /></cc:License></rdf:RDF></metadata><g id="layer10" transform="translate(-352)"><g id="g8974" transform="translate(-28.744568,-74.656495)"><rect id="background-5-6-3" x="382.24457" y="76.156494" width="75" height="100" fill="#0000ff" stroke="#000000" stroke-width="3" /><rect id="rect7-1-56-4" x="384.74457" y="78.656494" width="70" height="95" fill="#ffffff" /><text fill="#000000" color="#000000" stroke="#000000" x="475.5246" y="129.84547" font-size="49.6416px" id="text11-6-2-1-8" transform="scale(0.85719455,1.1665963)" style="fill:#cc0000;stroke:#404040;stroke-width:0.827363">9</text></g><path id="path16634-2" style="fill:#a31919;stroke:#008484;stroke-width:0.0391879;stroke-linecap:round;stroke-linejoin:round" d="m 366.55727,29.403191 c 0,0 -2.85407,-4.649449 -4.52998,-6.697736 -1.67582,-2.048225 -5.47984,-5.536623 -5.47984,-5.536623 0,0 3.80402,-3.488398 5.47984,-5.536622 1.67591,-2.0482235 4.52998,-6.6977362 4.52998,-6.6977362 0,0 2.85407,4.6494477 4.52998,6.6977362 1.67572,2.048224 5.47988,5.536622 5.47988,5.536622 0,0 -3.80416,3.488398 -5.47988,5.536622 -1.67591,2.048223 -4.52998,6.697736 -4.52998,6.697737 z" /></g></svg>
