<?xml version="1.0" encoding="UTF-8" standalone="no"?>
<svg id="Ace" version="1.1" xml:space="preserve" width="78" height="103" xmlns="http://www.w3.org/2000/svg" xmlns:svg="http://www.w3.org/2000/svg" xmlns:rdf="http://www.w3.org/1999/02/22-rdf-syntax-ns#" xmlns:cc="http://creativecommons.org/ns#" xmlns:dc="http://purl.org/dc/elements/1.1/"><title id="title469">Playing Card</title><defs id="defs4" /><metadata id="metadata465"><rdf:RDF><cc:Work rdf:about=""><dc:date>11/20/2023</dc:date><dc:creator><cc:Agent><dc:title>Caleb Hess</dc:title></cc:Agent></dc:creator><dc:title>Playing Card</dc:title><cc:license rdf:resource="http://creativecommons.org/publicdomain/zero/1.0/" /></cc:Work><cc:License rdf:about="http://creativecommons.org/publicdomain/zero/1.0/"><cc:permits rdf:resource="http://creativecommons.org/ns#Reproduction" /><cc:permits rdf:resource="http://creativecommons.org/ns#Distribution" /><cc:permits rdf:resource="http://creativecommons.org/ns#DerivativeWorks" /></cc:License></rdf:RDF></metadata><g id="layer14" transform="translate(-0.361449)"><g id="g9813"><rect id="background-5" x="1.861449" y="1.5" width="75" height="100" fill="#0000ff" stroke="#000000" stroke-width="3" /><rect id="rect7-1" x="4.3614488" y="4" width="70" height="95" fill="#ffffff" /><text fill="#000000" color="#000000" stroke="#000000" x="11.814016" y="88.954262" font-size="79.6876px" id="text11-6" transform="scale(0.97568972,1.024916)" style="fill:#cc0000;stroke:#404040;stroke-width:1.32813">K</text></g><path id="path16497-2-02" style="fill:#a31919;stroke:#008484;stroke-width:0.0391879;stroke-linecap:round;stroke-linejoin:round" d="m 14.149893,29.403191 c 0,0 -2.854065,-4.649448 -4.5299796,-6.697736 -1.6758149,-2.048224 -5.4798351,-5.536622 -5.4798351,-5.536622 0,0 3.8040202,-3.488398 5.4798351,-5.536622 1.6759146,-2.0482236 4.5299796,-6.6977373 4.5299796,-6.6977373 0,0 2.854066,4.6494487 4.529981,6.6977373 1.675715,2.048224 5.479875,5.536622 5.479875,5.536622 0,0 -3.80416,3.488398 -5.479875,5.536622 -1.675915,2.048223 -4.529981,6.697736 -4.529981,6.697736 z" /></g></svg>
