<?xml version="1.0" encoding="UTF-8" standalone="no"?>
<svg id="Ace" version="1.1" xml:space="preserve" width="78" height="103" xmlns="http://www.w3.org/2000/svg" xmlns:svg="http://www.w3.org/2000/svg" xmlns:rdf="http://www.w3.org/1999/02/22-rdf-syntax-ns#" xmlns:cc="http://creativecommons.org/ns#" xmlns:dc="http://purl.org/dc/elements/1.1/"><title id="title469">Playing Card</title><defs id="defs4" /><metadata id="metadata465"><rdf:RDF><cc:Work rdf:about=""><dc:date>11/20/2023</dc:date><dc:creator><cc:Agent><dc:title>Caleb Hess</dc:title></cc:Agent></dc:creator><dc:title>Playing Card</dc:title><cc:license rdf:resource="http://creativecommons.org/publicdomain/zero/1.0/" /></cc:Work><cc:License rdf:about="http://creativecommons.org/publicdomain/zero/1.0/"><cc:permits rdf:resource="http://creativecommons.org/ns#Reproduction" /><cc:permits rdf:resource="http://creativecommons.org/ns#Distribution" /><cc:permits rdf:resource="http://creativecommons.org/ns#DerivativeWorks" /></cc:License></rdf:RDF></metadata><g id="layer11" transform="translate(-264,-0.72289801)"><g id="g9826"><rect id="background-5-6" x="265.5" y="2.222898" width="75" height="100" fill="#0000ff" stroke="#000000" stroke-width="3" /><rect id="rect7-1-56" x="268" y="4.722898" width="70" height="95" fill="#ffffff" /><text fill="#000000" color="#000000" stroke="#000000" x="324.33121" y="66.470001" font-size="49.6416px" id="text11-6-2-1" transform="scale(0.85719455,1.1665963)" style="fill:#cc0000;stroke:#404040;stroke-width:0.827363">10</text></g><path id="path16634" style="fill:#a31919;stroke:#008484;stroke-width:0.0391879;stroke-linecap:round;stroke-linejoin:round" d="m 278.45543,29.403191 c 0,0 -2.85406,-4.649448 -4.52998,-6.697736 -1.67581,-2.048224 -5.47983,-5.536622 -5.47983,-5.536622 0,0 3.80402,-3.488398 5.47983,-5.536623 1.67592,-2.0482231 4.52998,-6.6977357 4.52998,-6.6977357 0,0 2.85407,4.6494476 4.52999,6.6977357 1.67571,2.048225 5.47987,5.536623 5.47987,5.536623 0,0 -3.80416,3.488398 -5.47987,5.536622 -1.67592,2.048223 -4.52999,6.697736 -4.52999,6.697736 z" /></g></svg>
