<?xml version="1.0" encoding="UTF-8" standalone="no"?>
<svg id="Ace" version="1.1" xml:space="preserve" width="78" height="103" xmlns="http://www.w3.org/2000/svg" xmlns:svg="http://www.w3.org/2000/svg" xmlns:rdf="http://www.w3.org/1999/02/22-rdf-syntax-ns#" xmlns:cc="http://creativecommons.org/ns#" xmlns:dc="http://purl.org/dc/elements/1.1/"><title id="title469">Playing Card</title><defs id="defs4" /><metadata id="metadata465"><rdf:RDF><cc:Work rdf:about=""><dc:date>11/20/2023</dc:date><dc:creator><cc:Agent><dc:title>Caleb Hess</dc:title></cc:Agent></dc:creator><dc:title>Playing Card</dc:title><cc:license rdf:resource="http://creativecommons.org/publicdomain/zero/1.0/" /></cc:Work><cc:License rdf:about="http://creativecommons.org/publicdomain/zero/1.0/"><cc:permits rdf:resource="http://creativecommons.org/ns#Reproduction" /><cc:permits rdf:resource="http://creativecommons.org/ns#Distribution" /><cc:permits rdf:resource="http://creativecommons.org/ns#DerivativeWorks" /></cc:License></rdf:RDF></metadata><g id="layer2" transform="translate(-1056,-0.36144912)"><g id="g8813"><rect id="background" x="1057.5" y="1.5" width="75" height="100" fill="#0000ff" stroke="#000000" stroke-width="3" transform="translate(0,0.36144912)" /><rect id="rect7" x="1060" y="4" width="70" height="95" fill="#ffffff" transform="translate(0,0.36144912)" /><text fill="#000000" color="#000000" stroke="#000000" x="1096.8628" y="88.954262" font-size="79.6876px" id="text11" transform="matrix(0.97568972,0,0,1.024916,0,0.36144912)" style="fill:#cc0000;stroke:#404040;stroke-width:1.32813">A</text></g><path id="path7335-04" style="fill:#a31919;stroke:#008484;stroke-width:0.0387109;stroke-linecap:round;stroke-linejoin:round" d="m 1062.0115,11.686472 c 0,-3.3287805 2.2723,-6.0267155 5.0746,-6.0267155 2.4552,0 4.5028,2.071111 4.9726,4.8229935 0.4697,-2.7516885 2.5174,-4.8229935 4.9725,-4.8229935 2.8023,0 5.0735,2.697935 5.0735,6.0267155 0.01,6.308715 -10.0363,11.034771 -10.0363,18.44359 0,-7.409468 -9.9519,-12.376346 -10.0569,-18.44359 z" /></g></svg>
