<?xml version="1.0" encoding="UTF-8" standalone="no"?>
<svg id="Ace" version="1.1" xml:space="preserve" width="78" height="103" xmlns="http://www.w3.org/2000/svg" xmlns:svg="http://www.w3.org/2000/svg" xmlns:rdf="http://www.w3.org/1999/02/22-rdf-syntax-ns#" xmlns:cc="http://creativecommons.org/ns#" xmlns:dc="http://purl.org/dc/elements/1.1/"><title id="title469">Playing Card</title><defs id="defs4" /><metadata id="metadata465"><rdf:RDF><cc:Work rdf:about=""><dc:date>11/20/2023</dc:date><dc:creator><cc:Agent><dc:title>Caleb Hess</dc:title></cc:Agent></dc:creator><dc:title>Playing Card</dc:title><cc:license rdf:resource="http://creativecommons.org/publicdomain/zero/1.0/" /></cc:Work><cc:License rdf:about="http://creativecommons.org/publicdomain/zero/1.0/"><cc:permits rdf:resource="http://creativecommons.org/ns#Reproduction" /><cc:permits rdf:resource="http://creativecommons.org/ns#Distribution" /><cc:permits rdf:resource="http://creativecommons.org/ns#DerivativeWorks" /></cc:License></rdf:RDF></metadata><g id="layer13" transform="translate(-88)"><g id="g9009"><rect id="background-5-5" x="177.56223" y="0.96432585" width="75" height="100" fill="#0000ff" stroke="#000000" stroke-width="3" transform="translate(-88.062225,0.53567415)" /><rect id="rect7-1-8" x="180.06223" y="3.8257751" width="70" height="95" fill="#ffffff" transform="translate(-88.062225,0.53567415)" /><text fill="#000000" color="#000000" stroke="#000000" x="198.36684" y="88.43161" font-size="79.6876px" id="text11-6-4" transform="matrix(0.90260095,0,0,0.8900124,-80.133555,3.3293472)" style="white-space:pre;inline-size:67.3323;display:inline;fill:#cc0000;stroke:#404040;stroke-width:1.32813" xml:space="preserve"><tspan x="198.36684" y="88.43161" id="tspan14206">Q</tspan></text></g><path id="path7335-9" style="fill:#a31919;stroke:#008484;stroke-width:0.0387109;stroke-linecap:round;stroke-linejoin:round" d="m 93.954411,11.677725 c 0,-3.3287805 2.27233,-6.0267155 5.07467,-6.0267155 2.455139,0 4.502799,2.071111 4.972529,4.8229935 0.46973,-2.7516885 2.5174,-4.8229935 4.97254,-4.8229935 2.80233,0 5.07355,2.697935 5.07355,6.0267155 0.006,6.308715 -10.0364,11.034771 -10.0364,18.44359 0,-7.409468 -9.951889,-12.376346 -10.056889,-18.44359 z" /></g></svg>
