<?xml version="1.0" encoding="UTF-8" standalone="no"?>
<svg id="Ace" version="1.1" xml:space="preserve" width="78" height="103" xmlns="http://www.w3.org/2000/svg" xmlns:svg="http://www.w3.org/2000/svg" xmlns:rdf="http://www.w3.org/1999/02/22-rdf-syntax-ns#" xmlns:cc="http://creativecommons.org/ns#" xmlns:dc="http://purl.org/dc/elements/1.1/"><title id="title469">Playing Card</title><defs id="defs4" /><metadata id="metadata465"><rdf:RDF><cc:Work rdf:about=""><dc:date>11/20/2023</dc:date><dc:creator><cc:Agent><dc:title>Caleb Hess</dc:title></cc:Agent></dc:creator><dc:title>Playing Card</dc:title><cc:license rdf:resource="http://creativecommons.org/publicdomain/zero/1.0/" /></cc:Work><cc:License rdf:about="http://creativecommons.org/publicdomain/zero/1.0/"><cc:permits rdf:resource="http://creativecommons.org/ns#Reproduction" /><cc:permits rdf:resource="http://creativecommons.org/ns#Distribution" /><cc:permits rdf:resource="http://creativecommons.org/ns#DerivativeWorks" /></cc:License></rdf:RDF></metadata><rect id="background-5-9" x="1.4938049" y="1.755584" width="75" height="100" fill="#0000ff" stroke="#000000" stroke-width="3" /><rect id="rect7-1-5" x="3.9938049" y="4.2555842" width="70" height="95" fill="#ffffff" /><text fill="#000000" color="#000000" stroke="#000000" x="29.876366" y="89.099808" font-size="67.2136px" id="text11-6-2" transform="scale(1.1686625,0.85567904)" style="stroke-width:1.12023">J</text><path id="path7333-4-1-9" style="fill:#000000;stroke:#008484;stroke-width:0.030058;stroke-linecap:round;stroke-linejoin:round" d="m 16.00745,7.1681814 c 0,4.9217186 -9.03322,8.2210806 -9.12852,12.2513106 0,2.211137 2.06255,4.003238 4.60605,4.003238 1.91271,0 3.55244,-1.013569 4.24841,-2.456582 -1.12465,4.178874 -5.49459,4.137199 -5.49459,4.137199 h 11.51328 c 0,0 -4.34902,-0.0231 -5.48659,-4.131972 0.69744,1.440209 2.33604,2.451307 4.24639,2.451307 2.54356,0 4.60503,-1.7921 4.60503,-4.003238 0.006,-4.190517 -9.10935,-7.330067 -9.10935,-12.2513096 z" /></svg>
