<?xml version="1.0" encoding="UTF-8" standalone="no"?>
<svg id="Ace" version="1.1" xml:space="preserve" width="78" height="103" xmlns="http://www.w3.org/2000/svg" xmlns:svg="http://www.w3.org/2000/svg" xmlns:rdf="http://www.w3.org/1999/02/22-rdf-syntax-ns#" xmlns:cc="http://creativecommons.org/ns#" xmlns:dc="http://purl.org/dc/elements/1.1/"><title id="title469">Playing Card</title><defs id="defs4" /><metadata id="metadata465"><rdf:RDF><cc:Work rdf:about=""><dc:date>11/20/2023</dc:date><dc:creator><cc:Agent><dc:title>Caleb Hess</dc:title></cc:Agent></dc:creator><dc:title>Playing Card</dc:title><cc:license rdf:resource="http://creativecommons.org/publicdomain/zero/1.0/" /></cc:Work><cc:License rdf:about="http://creativecommons.org/publicdomain/zero/1.0/"><cc:permits rdf:resource="http://creativecommons.org/ns#Reproduction" /><cc:permits rdf:resource="http://creativecommons.org/ns#Distribution" /><cc:permits rdf:resource="http://creativecommons.org/ns#DerivativeWorks" /></cc:License></rdf:RDF></metadata><g id="g1645" transform="translate(-88)"><rect id="background-5" x="89.5" y="1.5" width="75" height="100" fill="#0000ff" stroke="#000000" stroke-width="3" /><rect id="rect7-1" x="92" y="4" width="70" height="95" fill="#ffffff" /><text fill="#000000" color="#000000" stroke="#000000" x="101.63617" y="88.954262" font-size="79.6876px" id="text11-6" transform="scale(0.97568972,1.024916)" style="stroke-width:1.32813">K</text><path id="path7333-4-1" style="fill:#000000;stroke:#008484;stroke-width:0.030058;stroke-linecap:round;stroke-linejoin:round" d="m 104.01366,6.9125982 c 0,4.9217188 -9.033218,8.2210808 -9.128518,12.2513108 0,2.211137 2.062544,4.003238 4.606044,4.003238 1.912714,0 3.552444,-1.013569 4.248414,-2.456582 -1.12465,4.178874 -5.49459,4.137199 -5.49459,4.137199 h 11.51328 c 0,0 -4.34902,-0.0231 -5.48659,-4.131972 0.69744,1.440209 2.33604,2.451307 4.24639,2.451307 2.54356,0 4.60503,-1.7921 4.60503,-4.003238 0.006,-4.190517 -9.10935,-7.330067 -9.10935,-12.2513103 z" /></g></svg>
